<?xml version="1.0" encoding="utf-8"?>
<!-- Generator: Adobe Illustrator 23.0.0, SVG Export Plug-In . SVG Version: 6.00 Build 0)  -->
<svg version="1.1" xmlns="http://www.w3.org/2000/svg" xmlns:xlink="http://www.w3.org/1999/xlink" x="0px" y="0px"
	 viewBox="0 0 55 111" style="enable-background:new 0 0 55 111;" xml:space="preserve">
<style type="text/css">
	.st0{fill:#231815;}
	.st1{fill:#7FEB58;}
	.st2{display:none;}
	.st3{display:inline;fill:#7FEB58;}
</style>
<g id="レイヤー_1">
</g>
<g id="レイヤー_2">
	<g>
		<path class="st1" d="M51.17,108.29L5.57,58v47.84H3.64V0.73L27.4,53.15L51.17,0.73V108.29z M5.57,55.11l43.67,48.16V9.68
			L27.4,57.84L5.57,9.68V55.11z"/>
		<path class="st1" d="M50.28,111c-1.26,0-2.44-0.54-3.33-1.52L9.4,68.07v37.55c0,2.9-1.99,5.24-4.54,5.34
			c-1.25,0.04-2.37-0.42-3.27-1.3C0.58,108.66,0,107.23,0,105.73V5.26c0-2.42,1.47-4.52,3.58-5.1c2.15-0.6,4.35,0.53,5.35,2.73
			L27.5,43.83L46.06,2.89c1-2.2,3.2-3.33,5.36-2.73C53.53,0.74,55,2.84,55,5.26v100.41c0,1.66-0.67,3.23-1.8,4.2
			C52.35,110.61,51.34,111,50.28,111z M7.47,63.04l40.89,45.1c0.96,1.06,2.5,1.17,3.59,0.23c0.7-0.61,1.12-1.62,1.12-2.7V5.26
			c0-1.54-0.89-2.86-2.16-3.21c-1.23-0.34-2.5,0.34-3.1,1.66L27.5,48.52L7.19,3.71c-0.6-1.32-1.87-2-3.1-1.66
			C2.82,2.4,1.93,3.72,1.93,5.26v100.47c0,0.97,0.37,1.89,1,2.51c0.52,0.51,1.16,0.77,1.86,0.75c1.48-0.06,2.68-1.57,2.68-3.38
			V63.04z M47.34,98.04L7.47,54.08V18.49l17.48,38.55c0.49,1.07,1.43,1.74,2.45,1.74c1.03,0,1.97-0.67,2.45-1.74l17.48-38.55V98.04z
			 M9.4,53.31l36,39.71V27.44l-13.8,30.43c-0.8,1.78-2.42,2.88-4.21,2.88c-1.79,0-3.4-1.1-4.21-2.88L9.4,27.43V53.31z"/>
	</g>
	<g class="st2">
		<path class="st3" d="M51.1,107.48L4.68,56.79v49.46H3.71V2.54l23.7,51.75L51.1,2.54V107.48z M4.68,55.26l45.44,49.62V7.07
			L27.4,56.69L4.68,7.07V55.26z"/>
		<path class="st3" d="M50.68,111c-1.13,0-2.2-0.49-3-1.37L8.58,66.93v39.08c0,2.64-1.86,4.86-4.14,4.94
			c-1.17,0.06-2.29-0.44-3.13-1.36C0.46,108.68,0,107.45,0,106.13V4.86c0-2.25,1.36-4.19,3.3-4.72c1.94-0.53,3.93,0.49,4.85,2.49
			L27.5,44.9L46.86,2.63c0.92-2,2.91-3.02,4.85-2.49C53.64,0.67,55,2.61,55,4.86v101.21c0,1.55-0.63,3.02-1.68,3.92
			C52.55,110.65,51.64,111,50.68,111z M7.61,64.34l40.75,44.5c1.16,1.26,3.07,1.4,4.38,0.27c0.81-0.69,1.29-1.83,1.29-3.04V4.86
			c0-1.74-1.05-3.24-2.55-3.65c-1.5-0.41-3.04,0.38-3.75,1.93L27.5,47.3L7.28,3.14C6.57,1.59,5.02,0.8,3.53,1.21
			c-1.5,0.41-2.55,1.91-2.55,3.65v101.26c0,1.02,0.36,1.97,1.01,2.68c0.65,0.71,1.5,1.08,2.42,1.05c1.76-0.07,3.2-1.79,3.2-3.85
			V64.34z M47.2,97.15L7.61,53.92V20.44l16.84,36.78c0.57,1.25,1.71,2.03,2.96,2.03c1.25,0,2.38-0.78,2.96-2.03L47.2,20.44V97.15z
			 M8.58,53.45l37.64,41.1V24.97l-15,32.75c-0.74,1.62-2.21,2.62-3.82,2.62c-1.62,0-3.08-1.01-3.82-2.62l-15-32.76V53.45z"/>
	</g>
</g>
</svg>
