<svg xmlns="http://www.w3.org/2000/svg" width="299.77" height="605"><defs><style>.cls-1{fill:#231815}</style></defs><g id="レイヤー_2" data-name="レイヤー 2"><g id="レイヤー_1-2" data-name="レイヤー 1"><path class="cls-1" d="M278.89 590.24L30.36 316.15v260.77H19.84V4l129.53 285.68L278.89 4zM30.36 300.37l238 262.49V52.74l-119 262.5-119-262.5z"/><path class="cls-1" d="M274 605a24.34 24.34 0 01-18.13-8.3L51.25 371v204.65c0 15.8-10.87 28.58-24.73 29.11a23.91 23.91 0 01-17.84-7.09A30 30 0 010 576.26V28.68C0 15.48 8 4 19.53.87c11.7-3.26 23.73 2.86 29.18 14.88l101.18 223.16L251.06 15.75c5.45-12 17.45-18.14 29.19-14.88 11.49 3.13 19.52 14.61 19.52 27.81V576c0 9-3.66 17.58-9.79 22.89A24.21 24.21 0 01274 605zM40.73 343.62l222.88 245.81a13.77 13.77 0 0019.56 1.27c3.81-3.3 6.08-8.81 6.08-14.73V28.68c0-8.38-4.83-15.57-11.76-17.48-6.68-1.84-13.63 1.86-16.88 9L149.89 264.46 39.16 20.24c-3.25-7.17-10.19-10.9-16.87-9-6.93 1.91-11.77 9.1-11.77 17.48v547.54A19.17 19.17 0 0016 590a13.74 13.74 0 0010.15 4.11c8-.3 14.6-8.56 14.6-18.41zM258 534.39L40.73 294.77v-194L136 310.92c2.65 5.84 7.77 9.47 13.38 9.47s10.72-3.63 13.37-9.48L258 100.79zM51.25 290.58L247.48 507V149.54L172.29 315.4c-4.39 9.68-13.17 15.7-22.92 15.7s-18.54-6-22.93-15.69L51.25 149.54z"/></g></g></svg>