<?xml version="1.0" standalone="no"?>
<!DOCTYPE svg PUBLIC "-//W3C//DTD SVG 20010904//EN"
 "http://www.w3.org/TR/2001/REC-SVG-20010904/DTD/svg10.dtd">
<svg version="1.0" xmlns="http://www.w3.org/2000/svg"
 width="1776.000000pt" height="1776.000000pt" viewBox="0 0 1776.000000 1776.000000"
 preserveAspectRatio="xMidYMid meet">
<metadata>
Created by potrace 1.11, written by Peter Selinger 2001-2013
</metadata>
<g transform="translate(0.000000,1776.000000) scale(0.100000,-0.100000)"
fill="#000000" stroke="none">
<path d="M5168 17749 c-88 -10 -210 -51 -284 -95 -183 -110 -306 -282 -372
-520 l-27 -99 -3 -8070 c-2 -5560 0 -8104 8 -8181 18 -195 80 -357 188 -492
100 -125 219 -206 372 -253 60 -19 97 -23 185 -23 97 0 121 4 203 32 264 90
450 311 520 616 15 64 16 355 19 3138 2 1688 6 3068 8 3068 8 0 60 -57 661
-720 296 -328 667 -737 824 -910 157 -173 420 -463 585 -645 165 -182 451
-497 635 -700 338 -373 838 -924 1206 -1330 991 -1093 1510 -1665 1795 -1980
185 -204 358 -389 385 -412 101 -85 241 -145 375 -161 196 -24 414 54 563 202
152 149 233 333 256 581 8 75 10 2651 8 8175 l-3 8065 -27 99 c-36 129 -80
224 -149 316 -266 360 -752 404 -1064 96 -119 -117 -117 -113 -428 -801 -80
-176 -247 -545 -372 -820 -125 -275 -279 -615 -342 -755 -193 -425 -360 -793
-463 -1020 -54 -118 -162 -357 -240 -530 -78 -173 -244 -538 -367 -810 -124
-272 -277 -610 -340 -750 -578 -1277 -591 -1305 -603 -1305 -10 0 -69 127
-367 785 -64 140 -173 381 -243 535 -70 154 -179 395 -243 535 -109 242 -200
442 -834 1840 -146 322 -322 709 -390 860 -69 151 -169 372 -223 490 -54 118
-162 357 -240 530 -365 806 -444 979 -476 1038 -142 255 -428 411 -696 381z
m238 -339 c83 -41 166 -121 211 -205 17 -33 97 -206 178 -385 81 -179 191
-422 245 -540 54 -118 149 -330 213 -470 63 -140 216 -478 340 -750 123 -272
288 -637 367 -810 179 -395 363 -802 490 -1080 54 -118 104 -231 113 -250 8
-19 61 -138 119 -265 58 -126 157 -345 221 -485 280 -619 617 -1362 707 -1560
54 -118 135 -297 180 -398 45 -100 86 -182 90 -182 4 0 45 82 90 183 45 100
126 279 180 397 90 198 427 941 707 1560 64 140 163 359 221 485 58 127 111
246 119 265 9 19 59 132 113 250 127 278 311 685 490 1080 79 173 244 538 367
810 124 272 277 610 340 750 64 140 159 352 213 470 54 118 164 361 245 540
182 403 197 431 265 501 78 79 167 121 271 127 49 3 79 1 79 -6 0 -5 -49 -117
-109 -248 -60 -132 -218 -480 -351 -774 -133 -294 -299 -659 -367 -810 -69
-151 -167 -367 -218 -480 -105 -232 -276 -608 -485 -1070 -78 -173 -189 -416
-245 -540 -56 -124 -154 -340 -218 -480 -206 -457 -417 -921 -512 -1130 -113
-250 -266 -587 -585 -1290 -326 -718 -469 -1036 -550 -1213 -37 -82 -71 -148
-76 -149 -5 0 -33 53 -63 118 -100 224 -533 1179 -658 1454 -69 151 -177 390
-240 530 -64 140 -162 356 -218 480 -57 124 -109 241 -117 260 -9 19 -60 134
-116 255 -116 255 -290 637 -492 1085 -79 173 -244 538 -367 810 -124 272
-277 610 -340 750 -64 140 -159 352 -213 470 -113 248 -525 1158 -707 1560
-69 151 -138 304 -154 339 -16 34 -26 68 -23 73 4 6 41 9 94 6 74 -3 98 -9
156 -38z m7344 -32 c117 -78 200 -220 221 -375 6 -52 9 -2733 7 -8173 -3
-7865 -4 -8097 -22 -8150 -53 -156 -130 -258 -241 -316 -143 -75 -273 -69
-417 19 -32 19 -157 149 -375 390 -527 580 -729 803 -1018 1122 -149 165 -409
451 -576 635 -167 185 -542 599 -834 920 -291 322 -620 684 -730 805 -110 121
-348 385 -530 585 -181 200 -442 488 -580 640 -137 151 -401 442 -585 645
-184 203 -447 493 -585 645 -137 151 -374 412 -525 579 l-275 303 -5 -3458 -5
-3459 -25 -71 c-85 -238 -272 -374 -472 -343 -172 26 -297 144 -374 354 -18
49 -19 285 -22 8150 -2 5467 1 8125 8 8178 12 92 53 196 106 268 34 47 144
139 165 139 5 0 9 -3453 9 -8290 l0 -8290 145 0 145 0 0 3825 c0 3054 3 3825
13 3824 6 0 179 -186 384 -412 204 -227 514 -569 689 -762 174 -192 485 -534
689 -760 204 -225 506 -558 671 -740 397 -437 618 -682 979 -1080 165 -182
452 -498 637 -703 753 -830 2037 -2245 2912 -3211 l321 -354 3 8481 c2 7220 4
8482 16 8482 7 0 42 -19 76 -42z m-7293 -1338 c149 -329 448 -988 643 -1420
189 -417 707 -1559 943 -2080 69 -151 234 -516 367 -810 232 -512 382 -844
585 -1290 51 -113 202 -446 335 -740 133 -294 298 -656 365 -805 67 -148 133
-292 145 -320 l22 -50 33 70 c47 101 220 480 385 845 78 173 243 536 365 805
122 270 286 632 365 805 78 173 186 412 240 530 165 361 762 1679 957 2110 64
140 171 377 238 525 68 149 177 389 243 535 66 146 233 513 370 815 137 303
259 572 270 598 12 27 26 46 32 42 12 -8 14 -14961 2 -14969 -4 -2 -167 171
-362 386 -195 215 -492 543 -660 728 -534 588 -952 1050 -1465 1615 -598 660
-1072 1182 -1410 1555 -137 152 -419 462 -626 690 -1186 1309 -1883 2078
-2306 2544 l-173 191 0 3633 c0 2648 3 3633 11 3630 6 -2 45 -78 86 -168z"/>
<path d="M5681 11943 l-1 -2832 103 -113 c57 -62 237 -261 402 -443 165 -181
385 -424 490 -540 105 -115 368 -406 585 -645 217 -239 480 -529 585 -645 105
-115 368 -406 585 -645 217 -239 503 -554 635 -700 132 -146 854 -941 1603
-1767 749 -826 1366 -1504 1372 -1508 7 -4 10 1964 10 6327 -1 6147 -1 6332
-19 6298 -10 -19 -61 -129 -114 -245 -118 -259 -513 -1132 -837 -1845 -133
-294 -297 -656 -365 -805 -67 -148 -174 -385 -238 -525 -63 -140 -216 -478
-340 -750 -123 -272 -289 -637 -367 -810 -78 -173 -189 -416 -245 -540 -56
-124 -133 -292 -170 -375 -138 -308 -190 -380 -322 -446 -64 -32 -74 -34 -168
-34 -93 0 -105 2 -165 32 -36 18 -86 52 -111 76 -87 83 -76 61 -384 742 -65
143 -173 382 -240 530 -132 292 -531 1171 -732 1615 -69 151 -167 367 -218
480 -51 113 -158 349 -238 525 -80 176 -246 543 -370 815 -123 272 -288 637
-367 810 -78 173 -189 416 -245 540 -56 124 -105 232 -108 240 -3 8 -6 -1259
-6 -2817z m319 1418 c0 -5 59 -139 131 -298 165 -364 249 -550 549 -1213 238
-526 311 -686 555 -1225 67 -148 174 -385 238 -525 63 -140 170 -376 237 -525
67 -148 167 -369 222 -490 206 -456 281 -615 316 -677 21 -35 75 -101 122
-149 71 -70 103 -93 181 -132 109 -54 201 -77 314 -76 274 0 512 156 649 424
31 61 187 405 653 1435 64 140 171 377 238 525 68 149 177 389 243 535 228
502 574 1266 714 1575 260 573 369 810 379 819 5 6 9 -1943 9 -5237 0 -3196
-4 -5247 -9 -5247 -5 0 -135 138 -288 307 -153 169 -413 456 -578 638 -595
657 -1109 1224 -2031 2240 -391 431 -725 800 -1169 1290 -209 231 -492 543
-630 695 -137 151 -398 439 -580 640 -181 200 -365 402 -407 449 l-78 85 0
2073 c0 1375 3 2073 10 2073 6 0 10 -4 10 -9z"/>
</g>
</svg>
